<svg xmlns="http://www.w3.org/2000/svg" xmlns:xlink="http://www.w3.org/1999/xlink" width="32" height="9.368" viewBox="0 0 32 9.368">
  <defs>
    <clipPath id="clip-path">
      <rect width="32" height="9.368" fill="none"/>
    </clipPath>
  </defs>
  <g id="Group_192" data-name="Group 192" clip-path="url(#clip-path)">
    <g id="Group_192-2" data-name="Group 192" transform="translate(-0.521 -0.155)">
      <path id="Path_1" data-name="Path 1" d="M170.064,9.545a37.286,37.286,0,0,0,7.027-.336,17.663,17.663,0,0,0,7.781-3.72A39.939,39.939,0,0,0,189.706.155a39.872,39.872,0,0,0,4.834,5.334,17.658,17.658,0,0,0,7.781,3.72,37.275,37.275,0,0,0,7.026.336h12.111c16.271,0,24.407,0,29.6,5.092q.413.4.8.835c4.878,5.422,4.878,13.914,4.878,30.9V225.7c0,16.984,0,25.475-4.878,30.9q-.387.431-.8.835c-5.195,5.091-13.331,5.091-29.6,5.091H35.8c-16.271,0-24.407,0-29.6-5.091q-.412-.4-.8-.835C.521,251.174.521,242.683.521,225.7Z" transform="translate(-173)" fill="#d6d2c5"/>
      <path id="Path_2" data-name="Path 2" d="M14.577,46.316A22.952,22.952,0,0,1,37.529,23.364H220.18a22.952,22.952,0,1,1,0,45.9H37.529A22.952,22.952,0,0,1,14.577,46.316Z" fill="#fbf5e3"/>
      <path id="Path_3" data-name="Path 3" d="M46.53,221.172a6.655,6.655,0,0,1-2.646-.5,4.417,4.417,0,0,1-1.848-1.47,3.707,3.707,0,0,1-.672-2.205h2.562a2.333,2.333,0,0,0,.735,1.554,2.682,2.682,0,0,0,1.869.609,2.9,2.9,0,0,0,1.932-.588,1.977,1.977,0,0,0,.693-1.554,1.662,1.662,0,0,0-.441-1.2,2.771,2.771,0,0,0-1.071-.714,15.39,15.39,0,0,0-1.764-.546,18.369,18.369,0,0,1-2.331-.756,3.944,3.944,0,0,1-1.512-1.218,3.49,3.49,0,0,1-.63-2.184,3.882,3.882,0,0,1,.63-2.205,4.024,4.024,0,0,1,1.764-1.449,6.409,6.409,0,0,1,2.625-.5,5.39,5.39,0,0,1,3.465,1.071,3.866,3.866,0,0,1,1.512,2.9H48.757A1.917,1.917,0,0,0,48,208.845a2.8,2.8,0,0,0-1.827-.567,2.592,2.592,0,0,0-1.68.525,1.829,1.829,0,0,0-.651,1.512,1.6,1.6,0,0,0,.4,1.113,3.079,3.079,0,0,0,1.05.672,16.138,16.138,0,0,0,1.722.546,17.414,17.414,0,0,1,2.352.8,3.805,3.805,0,0,1,1.554,1.239,3.446,3.446,0,0,1,.651,2.205,3.933,3.933,0,0,1-.609,2.1,4.3,4.3,0,0,1-1.743,1.6A5.768,5.768,0,0,1,46.53,221.172Zm10.259-12.81v4.284h5.04V214.6h-5.04v4.473h5.67v1.953H54.4V206.409h8.064v1.953Zm15.276,12.81a7.686,7.686,0,0,1-3.759-.945A7.281,7.281,0,0,1,65.6,217.56a7.63,7.63,0,0,1-.987-3.864,7.516,7.516,0,0,1,.987-3.843,7.123,7.123,0,0,1,2.709-2.646,7.554,7.554,0,0,1,3.759-.966,7.479,7.479,0,0,1,3.759.966,6.932,6.932,0,0,1,2.709,2.646,7.516,7.516,0,0,1,.987,3.843,7.63,7.63,0,0,1-.987,3.864,7.082,7.082,0,0,1-2.709,2.667A7.609,7.609,0,0,1,72.065,221.172Zm0-2.079a5.094,5.094,0,0,0,2.583-.651,4.6,4.6,0,0,0,1.764-1.89,6.051,6.051,0,0,0,.651-2.856,5.926,5.926,0,0,0-.651-2.835,4.464,4.464,0,0,0-1.764-1.869,5.45,5.45,0,0,0-5.166,0,4.6,4.6,0,0,0-1.785,1.869,6.088,6.088,0,0,0-.63,2.835,6.217,6.217,0,0,0,.63,2.856,4.744,4.744,0,0,0,1.785,1.89A5.094,5.094,0,0,0,72.065,219.093Z" fill="#3e4959"/>
      <path id="Path_4" data-name="Path 4" d="M44.116,152.46v4.284h5.04V158.7h-5.04v4.473h5.67v1.953H41.722V150.507h8.064v1.953Zm7.821,6.867a6.573,6.573,0,0,1,.714-3.129,5.207,5.207,0,0,1,2.016-2.1,5.8,5.8,0,0,1,2.94-.735,5.678,5.678,0,0,1,3.465,1.008,4.844,4.844,0,0,1,1.869,2.835H60.357a2.732,2.732,0,0,0-1.008-1.344,2.977,2.977,0,0,0-1.743-.483,2.917,2.917,0,0,0-2.352,1.05,4.391,4.391,0,0,0-.861,2.9,4.479,4.479,0,0,0,.861,2.919,2.917,2.917,0,0,0,2.352,1.05,2.657,2.657,0,0,0,2.751-1.827H62.94a5.223,5.223,0,0,1-1.89,2.814,5.618,5.618,0,0,1-3.444,1.029,5.8,5.8,0,0,1-2.94-.735,5.389,5.389,0,0,1-2.016-2.1A6.7,6.7,0,0,1,51.936,159.327Zm18.409,5.985a5.993,5.993,0,0,1-2.961-.735,5.449,5.449,0,0,1-2.079-2.1,6.394,6.394,0,0,1-.756-3.15,6.213,6.213,0,0,1,.777-3.129,5.367,5.367,0,0,1,2.121-2.1,6.5,6.5,0,0,1,6.006,0,5.367,5.367,0,0,1,2.121,2.1,6.213,6.213,0,0,1,.777,3.129,6.084,6.084,0,0,1-.8,3.129,5.58,5.58,0,0,1-2.184,2.121A6.275,6.275,0,0,1,70.345,165.312Zm0-2.079a3.5,3.5,0,0,0,1.722-.441,3.339,3.339,0,0,0,1.323-1.323,4.85,4.85,0,0,0,.021-4.263,3.245,3.245,0,0,0-1.281-1.323,3.583,3.583,0,0,0-3.444,0,3.155,3.155,0,0,0-1.239,1.323,4.441,4.441,0,0,0-.462,2.121,4.128,4.128,0,0,0,.945,2.9A3.207,3.207,0,0,0,70.345,163.233Zm22.38-9.87a5.126,5.126,0,0,1,2.436.567,4.017,4.017,0,0,1,1.7,1.68,5.376,5.376,0,0,1,.63,2.688v6.825H95.119v-6.468a3.319,3.319,0,0,0-.777-2.373,2.747,2.747,0,0,0-2.121-.84,2.815,2.815,0,0,0-2.142.84,3.319,3.319,0,0,0-.777,2.373v6.468H86.929v-6.468a3.319,3.319,0,0,0-.777-2.373,2.747,2.747,0,0,0-2.121-.84,2.815,2.815,0,0,0-2.142.84,3.319,3.319,0,0,0-.777,2.373v6.468H78.718V153.552h2.394v1.323a3.98,3.98,0,0,1,1.491-1.113,4.727,4.727,0,0,1,1.932-.4,5.143,5.143,0,0,1,2.478.588,4.019,4.019,0,0,1,1.68,1.7,3.821,3.821,0,0,1,1.638-1.659A4.781,4.781,0,0,1,92.725,153.363Zm21.82,0a5.127,5.127,0,0,1,2.436.567,4.017,4.017,0,0,1,1.7,1.68,5.376,5.376,0,0,1,.63,2.688v6.825h-2.373v-6.468a3.319,3.319,0,0,0-.777-2.373,2.747,2.747,0,0,0-2.121-.84,2.815,2.815,0,0,0-2.142.84,3.319,3.319,0,0,0-.777,2.373v6.468h-2.373v-6.468a3.319,3.319,0,0,0-.777-2.373,2.747,2.747,0,0,0-2.121-.84,2.815,2.815,0,0,0-2.142.84,3.319,3.319,0,0,0-.777,2.373v6.468h-2.394V153.552h2.394v1.323a3.98,3.98,0,0,1,1.491-1.113,4.727,4.727,0,0,1,1.932-.4,5.143,5.143,0,0,1,2.478.588,4.019,4.019,0,0,1,1.68,1.7,3.821,3.821,0,0,1,1.638-1.659A4.781,4.781,0,0,1,114.545,153.363Zm18.418,5.691a7.485,7.485,0,0,1-.084,1.176h-8.841a3.211,3.211,0,0,0,1.029,2.226,3.248,3.248,0,0,0,2.268.84,2.8,2.8,0,0,0,2.73-1.617h2.583a5.247,5.247,0,0,1-1.911,2.625,5.57,5.57,0,0,1-3.4,1.008,6.035,6.035,0,0,1-2.982-.735,5.493,5.493,0,0,1-2.058-2.1,7.165,7.165,0,0,1-.021-6.279,5.166,5.166,0,0,1,2.037-2.1,6.122,6.122,0,0,1,3.024-.735,5.893,5.893,0,0,1,2.919.714,5.027,5.027,0,0,1,1.995,2.016A5.98,5.98,0,0,1,132.963,159.054Zm-2.5-.756a2.724,2.724,0,0,0-.945-2.121,3.379,3.379,0,0,0-2.289-.8,3.051,3.051,0,0,0-2.121.8,3.248,3.248,0,0,0-1.05,2.121Zm7.249-3.066a3.7,3.7,0,0,1,1.386-1.365,4.12,4.12,0,0,1,2.079-.5v2.478h-.609a2.954,2.954,0,0,0-2.142.714,3.448,3.448,0,0,0-.714,2.478v6.09h-2.394V153.552h2.394Zm4.868,4.1a6.573,6.573,0,0,1,.714-3.129,5.207,5.207,0,0,1,2.016-2.1,5.8,5.8,0,0,1,2.94-.735,5.678,5.678,0,0,1,3.465,1.008,4.844,4.844,0,0,1,1.869,2.835H151a2.732,2.732,0,0,0-1.008-1.344,2.977,2.977,0,0,0-1.743-.483,2.917,2.917,0,0,0-2.352,1.05,4.391,4.391,0,0,0-.861,2.9,4.479,4.479,0,0,0,.861,2.919,2.917,2.917,0,0,0,2.352,1.05A2.657,2.657,0,0,0,151,161.469h2.583a5.223,5.223,0,0,1-1.89,2.814,5.618,5.618,0,0,1-3.444,1.029,5.8,5.8,0,0,1-2.94-.735,5.389,5.389,0,0,1-2.016-2.1A6.7,6.7,0,0,1,142.581,159.327Zm24-.273a7.485,7.485,0,0,1-.084,1.176h-8.841a3.211,3.211,0,0,0,1.029,2.226,3.248,3.248,0,0,0,2.268.84,2.8,2.8,0,0,0,2.73-1.617h2.583a5.247,5.247,0,0,1-1.911,2.625,5.57,5.57,0,0,1-3.4,1.008,6.035,6.035,0,0,1-2.982-.735,5.493,5.493,0,0,1-2.058-2.1,7.165,7.165,0,0,1-.021-6.279,5.166,5.166,0,0,1,2.037-2.1,6.122,6.122,0,0,1,3.024-.735,5.893,5.893,0,0,1,2.919.714,5.027,5.027,0,0,1,1.995,2.016A5.98,5.98,0,0,1,166.576,159.054Zm-2.5-.756a2.724,2.724,0,0,0-.945-2.121,3.379,3.379,0,0,0-2.289-.8,3.051,3.051,0,0,0-2.121.8,3.248,3.248,0,0,0-1.05,2.121Z" fill="#3e4959"/>
      <path id="Path_5" data-name="Path 5" d="M44.116,96.556v4.284h5.04v1.953h-5.04v4.473h5.67v1.953H41.722V94.6h8.064v1.953Zm22.626.9a5.126,5.126,0,0,1,2.436.567,4.017,4.017,0,0,1,1.7,1.68,5.378,5.378,0,0,1,.63,2.688v6.825H69.135v-6.468a3.319,3.319,0,0,0-.777-2.373,2.746,2.746,0,0,0-2.121-.84,2.814,2.814,0,0,0-2.142.84,3.319,3.319,0,0,0-.777,2.373v6.468H60.945v-6.468a3.319,3.319,0,0,0-.777-2.373,2.746,2.746,0,0,0-2.121-.84,2.814,2.814,0,0,0-2.142.84,3.319,3.319,0,0,0-.777,2.373v6.468H52.734V97.648h2.394v1.323a3.98,3.98,0,0,1,1.491-1.113,4.726,4.726,0,0,1,1.932-.4,5.143,5.143,0,0,1,2.478.588,4.019,4.019,0,0,1,1.68,1.7,3.821,3.821,0,0,1,1.638-1.659A4.781,4.781,0,0,1,66.741,97.459Zm7.015,5.922a6.48,6.48,0,0,1,.714-3.087,5.331,5.331,0,0,1,4.746-2.835A4.909,4.909,0,0,1,81.59,98a4.708,4.708,0,0,1,1.638,1.323v-1.68h2.415v11.571H83.228V107.5a4.754,4.754,0,0,1-1.659,1.365,5.4,5.4,0,0,1-5.124-.21,5.611,5.611,0,0,1-1.974-2.142A6.732,6.732,0,0,1,73.757,103.381Zm9.471.042a4.12,4.12,0,0,0-.5-2.079,3.434,3.434,0,0,0-6.027-.021,4.143,4.143,0,0,0-.483,2.058,4.386,4.386,0,0,0,.483,2.1,3.663,3.663,0,0,0,1.3,1.386,3.454,3.454,0,0,0,1.722.462,3.367,3.367,0,0,0,3-1.806A4.238,4.238,0,0,0,83.228,103.423ZM90,96.115a1.533,1.533,0,1,1,0-3.066,1.458,1.458,0,0,1,1.071.441,1.572,1.572,0,0,1,0,2.184A1.458,1.458,0,0,1,90,96.115Zm1.176,1.533v11.571H88.787V97.648Zm5.537-3.969v15.54H94.324V93.679Zm23.97.945v14.6h-2.394v-10l-4.452,10h-1.659l-4.473-10v10h-2.394v-14.6H107.9l5.124,11.445,5.1-11.445Zm2.349,8.757a6.48,6.48,0,0,1,.714-3.087,5.331,5.331,0,0,1,4.746-2.835A4.909,4.909,0,0,1,130.87,98a4.707,4.707,0,0,1,1.638,1.323v-1.68h2.415v11.571h-2.415V107.5a4.754,4.754,0,0,1-1.659,1.365,5.4,5.4,0,0,1-5.124-.21,5.611,5.611,0,0,1-1.974-2.142A6.732,6.732,0,0,1,123.037,103.381Zm9.471.042a4.12,4.12,0,0,0-.5-2.079,3.434,3.434,0,0,0-6.027-.021,4.143,4.143,0,0,0-.483,2.058,4.386,4.386,0,0,0,.483,2.1,3.663,3.663,0,0,0,1.3,1.386,3.454,3.454,0,0,0,1.722.462,3.367,3.367,0,0,0,3-1.806A4.238,4.238,0,0,0,132.508,103.423Zm7.953-4.1a3.7,3.7,0,0,1,1.386-1.365,4.12,4.12,0,0,1,2.079-.5v2.478h-.609a2.954,2.954,0,0,0-2.142.714,3.448,3.448,0,0,0-.714,2.478v6.09h-2.394V97.648h2.394Zm10.244,4.116,5.334,5.775H152.8l-4.284-4.977v4.977h-2.394V93.679h2.394v9.03l4.2-5.061h3.318Zm17.655-.294a7.485,7.485,0,0,1-.084,1.176h-8.841a3.211,3.211,0,0,0,1.029,2.226,3.248,3.248,0,0,0,2.268.84,2.8,2.8,0,0,0,2.73-1.617h2.583a5.247,5.247,0,0,1-1.911,2.625,5.57,5.57,0,0,1-3.4,1.008,6.035,6.035,0,0,1-2.982-.735,5.493,5.493,0,0,1-2.058-2.1,7.165,7.165,0,0,1-.021-6.279,5.165,5.165,0,0,1,2.037-2.1,6.122,6.122,0,0,1,3.024-.735,5.893,5.893,0,0,1,2.919.714,5.026,5.026,0,0,1,1.995,2.016A5.98,5.98,0,0,1,168.36,103.15Zm-2.5-.756a2.724,2.724,0,0,0-.945-2.121,3.377,3.377,0,0,0-2.289-.8,3.05,3.05,0,0,0-2.121.8,3.248,3.248,0,0,0-1.05,2.121Zm7.648-2.793v6.405a1.3,1.3,0,0,0,.294.945,1.6,1.6,0,0,0,1.05.273h1.47v2h-1.89a3.643,3.643,0,0,1-2.478-.756,3.116,3.116,0,0,1-.861-2.457V99.6h-1.365V97.648h1.365V94.771h2.415v2.877h2.814V99.6Zm6.238-3.486a1.533,1.533,0,1,1,0-3.066,1.458,1.458,0,0,1,1.071.441,1.572,1.572,0,0,1,0,2.184A1.458,1.458,0,0,1,179.747,96.115Zm1.176,1.533v11.571h-2.394V97.648Zm8.981-.189a5.126,5.126,0,0,1,2.436.567,4.017,4.017,0,0,1,1.7,1.68,5.528,5.528,0,0,1,.609,2.688v6.825h-2.373v-6.468a3.319,3.319,0,0,0-.777-2.373,2.746,2.746,0,0,0-2.121-.84,2.814,2.814,0,0,0-2.142.84,3.319,3.319,0,0,0-.777,2.373v6.468h-2.394V97.648h2.394v1.323a3.98,3.98,0,0,1,1.491-1.113A4.874,4.874,0,0,1,189.9,97.459Zm12.462,0a4.987,4.987,0,0,1,2.373.546,4.464,4.464,0,0,1,1.638,1.323v-1.68h2.415v11.76a5.851,5.851,0,0,1-.672,2.835,4.821,4.821,0,0,1-1.953,1.974,6.04,6.04,0,0,1-3.024.714,6.54,6.54,0,0,1-3.906-1.113,4.035,4.035,0,0,1-1.764-2.982h2.373A2.543,2.543,0,0,0,201,112.285a3.944,3.944,0,0,0,2.142.567,3.151,3.151,0,0,0,2.331-.882,3.422,3.422,0,0,0,.9-2.562v-1.932a4.936,4.936,0,0,1-4.011,1.932,5.287,5.287,0,0,1-2.772-.756,5.611,5.611,0,0,1-1.974-2.142,6.732,6.732,0,0,1-.714-3.129,6.48,6.48,0,0,1,.714-3.087,5.331,5.331,0,0,1,4.746-2.835Zm4.011,5.964a4.12,4.12,0,0,0-.5-2.079,3.434,3.434,0,0,0-6.027-.021,4.143,4.143,0,0,0-.483,2.058,4.387,4.387,0,0,0,.483,2.1,3.663,3.663,0,0,0,1.3,1.386,3.454,3.454,0,0,0,1.722.462,3.367,3.367,0,0,0,3-1.806A4.238,4.238,0,0,0,206.377,103.423Z" fill="#3e4959"/>
    </g>
  </g>
</svg>
