<svg width="590" height="895" viewBox="0 0 590 895" fill="none" xmlns="http://www.w3.org/2000/svg">
<path opacity="0.1" d="M583.179 292.499C620.815 153.247 481.634 0.496094 328.961 0.496094C188.359 0.496094 52.7285 114.171 0.890625 225.004L98.1754 399.069C174.867 88.5942 314.048 100.672 335.352 103.514C390.74 109.908 448.969 189.481 439.027 272.606C437.607 283.263 424.115 374.203 321.859 409.016L311.208 412.568L353.104 252.713L205.402 246.318C195.46 277.579 134.391 462.301 85.3935 605.816C10.8321 823.219 159.955 894.266 255.109 894.266C456.07 894.266 578.208 708.123 544.833 575.976C519.98 477.931 410.623 458.038 410.623 458.038C410.623 458.038 549.804 418.252 583.179 292.499ZM348.134 738.673C333.931 750.041 285.644 782.012 250.139 782.012C235.936 782.012 225.285 777.039 218.184 767.092C203.271 745.778 206.822 703.15 230.256 637.076C231.676 633.524 234.516 624.998 237.357 615.052C248.008 583.791 265.051 531.927 274.282 508.481L276.413 503.508L281.383 504.929C312.628 512.034 402.812 551.109 406.362 632.813C408.493 669.758 387.189 708.123 348.134 738.673Z" fill="#3E4959"/>
</svg>
