<svg width="24" height="25" viewBox="0 0 24 25" fill="none" xmlns="http://www.w3.org/2000/svg">
<rect y="0.550293" width="24" height="24" rx="4.3" fill="url(#paint0_radial_229_78)"/>
<rect y="0.550293" width="24" height="24" rx="4.3" fill="url(#paint1_radial_229_78)"/>
<path d="M17.9972 7.83663C17.9972 8.54672 17.4216 9.12235 16.7115 9.12235C16.0014 9.12235 15.4258 8.54672 15.4258 7.83663C15.4258 7.12655 16.0014 6.55092 16.7115 6.55092C17.4216 6.55092 17.9972 7.12655 17.9972 7.83663Z" fill="white"/>
<path fill-rule="evenodd" clip-rule="evenodd" d="M11.9972 16.8366C14.3641 16.8366 16.2829 14.9179 16.2829 12.5509C16.2829 10.184 14.3641 8.26521 11.9972 8.26521C9.63027 8.26521 7.7115 10.184 7.7115 12.5509C7.7115 14.9179 9.63027 16.8366 11.9972 16.8366ZM11.9972 15.1223C13.4174 15.1223 14.5686 13.9711 14.5686 12.5509C14.5686 11.1308 13.4174 9.97949 11.9972 9.97949C10.577 9.97949 9.42578 11.1308 9.42578 12.5509C9.42578 13.9711 10.577 15.1223 11.9972 15.1223Z" fill="white"/>
<path fill-rule="evenodd" clip-rule="evenodd" d="M3.42578 12.2081C3.42578 9.32779 3.42578 7.88766 3.98632 6.78754C4.47938 5.81985 5.26614 5.03309 6.23383 4.54003C7.33395 3.97949 8.77408 3.97949 11.6544 3.97949L12.3401 3.97949C15.2203 3.97949 16.6605 3.97949 17.7606 4.54003C18.7283 5.03309 19.515 5.81985 20.0081 6.78754C20.5686 7.88766 20.5686 9.32779 20.5686 12.2081L20.5686 12.8938C20.5686 15.774 20.5686 17.2142 20.0081 18.3143C19.515 19.282 18.7283 20.0687 17.7606 20.5618C16.6605 21.1223 15.2203 21.1223 12.3401 21.1223L11.6544 21.1223C8.77408 21.1223 7.33395 21.1223 6.23383 20.5618C5.26614 20.0687 4.47938 19.282 3.98632 18.3143C3.42578 17.2142 3.42578 15.774 3.42578 12.8938L3.42578 12.2081ZM11.6544 5.69378L12.3401 5.69378C13.8085 5.69378 14.8067 5.69511 15.5783 5.75815C16.3299 5.81956 16.7142 5.93086 16.9823 6.06747C17.6274 6.39618 18.152 6.92068 18.4807 7.56581C18.6173 7.83392 18.7286 8.21827 18.79 8.96984C18.853 9.74142 18.8544 10.7396 18.8544 12.2081L18.8544 12.8938C18.8544 14.3622 18.853 15.3604 18.79 16.132C18.7286 16.8836 18.6173 17.2679 18.4807 17.536C18.152 18.1812 17.6274 18.7057 16.9823 19.0344C16.7142 19.171 16.3299 19.2823 15.5783 19.3437C14.8067 19.4067 13.8085 19.4081 12.3401 19.4081L11.6544 19.4081C10.1859 19.4081 9.18771 19.4067 8.41613 19.3437C7.66456 19.2823 7.28021 19.171 7.0121 19.0344C6.36697 18.7057 5.84247 18.1812 5.51376 17.536C5.37715 17.2679 5.26585 16.8836 5.20444 16.132C5.1414 15.3604 5.14007 14.3622 5.14007 12.8938L5.14007 12.2081C5.14007 10.7396 5.1414 9.74142 5.20444 8.96984C5.26585 8.21827 5.37715 7.83392 5.51376 7.56581C5.84247 6.92068 6.36697 6.39618 7.0121 6.06747C7.28021 5.93086 7.66456 5.81956 8.41613 5.75815C9.18771 5.69511 10.1859 5.69378 11.6544 5.69378Z" fill="white"/>
<defs>
<radialGradient id="paint0_radial_229_78" cx="0" cy="0" r="1" gradientUnits="userSpaceOnUse" gradientTransform="translate(6.37503 26.3988) rotate(-90) scale(23.7858 22.1226)">
<stop stop-color="#FFDD55"/>
<stop offset="0.1" stop-color="#FFDD55"/>
<stop offset="0.5" stop-color="#FF543E"/>
<stop offset="1" stop-color="#C837AB"/>
</radialGradient>
<radialGradient id="paint1_radial_229_78" cx="0" cy="0" r="1" gradientUnits="userSpaceOnUse" gradientTransform="translate(-4.02013 2.27921) rotate(78.6806) scale(10.6323 43.827)">
<stop stop-color="#3771C8"/>
<stop offset="0.128" stop-color="#3771C8"/>
<stop offset="1" stop-color="#6600FF" stop-opacity="0"/>
</radialGradient>
</defs>
</svg>
