<svg width="19" height="22" viewBox="0 0 19 22" fill="none" xmlns="http://www.w3.org/2000/svg">
<circle cx="9.11414" cy="9.11316" r="9.11414" fill="#3E4959"/>
<mask id="mask0_1183_2430" style="mask-type:alpha" maskUnits="userSpaceOnUse" x="0" y="-1" width="19" height="20">
<circle cx="9.11414" cy="9.11316" r="9.11414" fill="#3E4959"/>
</mask>
<g mask="url(#mask0_1183_2430)">
<path d="M16.2475 10.3279C17.2446 6.64333 13.5571 2.60156 9.51219 2.60156C5.7871 2.60156 2.1937 5.60939 0.820312 8.54202L3.39777 13.1478C5.42964 4.93263 9.1171 5.25221 9.68151 5.32741C11.149 5.4966 12.6917 7.60208 12.4283 9.80155C12.3907 10.0835 12.0332 12.4898 9.32405 13.4109L9.04185 13.5049L10.1518 9.27518L6.23863 9.10599C5.97524 9.93314 4.35726 14.8209 3.05913 18.6182C1.08371 24.3707 5.03456 26.2506 7.55558 26.2506C12.8798 26.2506 16.1158 21.3253 15.2315 17.8287C14.573 15.2344 11.6758 14.7081 11.6758 14.7081C11.6758 14.7081 15.3632 13.6553 16.2475 10.3279ZM10.0202 22.1336C9.64388 22.4344 8.36456 23.2804 7.42388 23.2804C7.04761 23.2804 6.76541 23.1488 6.57727 22.8856C6.18219 22.3216 6.27625 21.1937 6.8971 19.4454C6.93473 19.3514 7.00998 19.1258 7.08524 18.8626C7.36744 18.0355 7.81897 16.6632 8.06354 16.0428L8.11998 15.9112L8.25168 15.9488C9.07947 16.1368 11.4688 17.1707 11.5629 19.3326C11.6193 20.3101 11.0549 21.3253 10.0202 22.1336Z" fill="#FBF5E3"/>
</g>
</svg>
