<svg width="26" height="27" viewBox="0 0 26 27" fill="none" xmlns="http://www.w3.org/2000/svg">
<path d="M13 25.5503C19.6274 25.5503 25 20.1777 25 13.5503C25 6.92288 19.6274 1.55029 13 1.55029C6.37258 1.55029 1 6.92288 1 13.5503C1 20.1777 6.37258 25.5503 13 25.5503Z" stroke="#3771C8" stroke-width="1.5" stroke-linecap="round" stroke-linejoin="round"/>
<path d="M9.39953 2.30029C7.05953 9.30829 7.05972 17.7923 9.39972 24.8003" stroke="#3771C8" stroke-width="1.5" stroke-linecap="round" stroke-linejoin="round"/>
<path d="M13 1.55029C13.3756 9.42529 13.0006 18.4253 13.0003 25.5503" stroke="#3771C8" stroke-width="1.5" stroke-linecap="round" stroke-linejoin="round"/>
<path d="M16.6016 2.30029C18.9416 9.30829 18.9416 17.4173 16.6016 24.4253" stroke="#3771C8" stroke-width="1.5" stroke-linecap="round" stroke-linejoin="round"/>
<path d="M1.75 17.1503C8.758 19.4903 17.242 19.2653 24.25 16.9253" stroke="#3771C8" stroke-width="1.5" stroke-linecap="round" stroke-linejoin="round"/>
<path d="M1 13.5503C11.125 13.5503 18.25 13.5503 25 13.5503" stroke="#3771C8" stroke-width="1.5" stroke-linecap="round" stroke-linejoin="round"/>
<path d="M1.75 9.95037C8.758 7.61037 17.242 7.61037 24.25 9.95037" stroke="#3771C8" stroke-width="1.5" stroke-linecap="round" stroke-linejoin="round"/>
</svg>
